/* XPM */
static const char * team_logo_xpm[] = {
"64 64 70 1",
"   c gray94",
".  c #E3DDD3",
"X  c #F0E0E0",
"o  c #E0CEC2",
"O  c #CCB0A0",
"+  c #C69E85",
"@  c #D0B090",
"#  c #DFCFB1",
"$  c #E5E5E0",
"%  c #D0C0A0",
"&  c #E2C0B7",
"*  c #E0C0A0",
"=  c #B17E52",
"-  c #B07040",
";  c #A07030",
":  c #A07020",
">  c #A07040",
",  c #CFAE83",
"<  c #B08040",
"1  c #BD8D64",
"2  c #B0904F",
"3  c #B08030",
"4  c #BF8F52",
"5  c #C0A060",
"6  c #B06838",
"7  c #AC6050",
"8  c #D07070",
"9  c #D08070",
"0  c #D09080",
"q  c #E8CFD0",
"w  c #C0A070",
"e  c #B04A3A",
"r  c #C05060",
"t  c #D05060",
"y  c #C04050",
"u  c #C05050",
"i  c #D08080",
"p  c #C04060",
"a  c #D06060",
"s  c #C65A57",
"d  c #D0A070",
"f  c #D06070",
"g  c #D08090",
"h  c #D07080",
"j  c #E090A0",
"k  c #E0A0A0",
"l  c #E09090",
"z  c #D0C090",
"x  c #D8B1AF",
"c  c #E08090",
"v  c #C0725C",
"b  c #ECA4B0",
"n  c #E08080",
"m  c #E07080",
"M  c #D090A0",
"N  c #A05A3A",
"B  c #B89070",
"V  c #D07060",
"C  c #D05070",
"Z  c #F0B0B0",
"A  c #E07070",
"S  c #F0A0A0",
"D  c #904C20",
"F  c #A04E2F",
"G  c #E06070",
"H  c #D04050",
"J  c #C05040",
"K  c #964A2A",
"L  c #C04040",
"P  c #A47054",
"                                  .                             ",
"                           X.X.oO+@#oo.$X   X                   ",
"                   $.o%&&%o*+=-;:;>,*@<;-==+*oX                 ",
"              X X%,12<3+%@,1-;;->;-@*%<;;;;;2,###               ",
"              #@4==22<5%*%<<<;;<;<*@<@*=;--66789-0q             ",
"             &@@4442<w&+4@@=<-;;=%@-;;,@errrrtrrryui&           ",
"            o<4*w=4<w&w<22%@<<;1*+6;;6urprrrrttatrruy=q         ",
"            @<2,%4<w&w<24<4*w;w*1;;6urrrrttaaatatttsaru+        ",
"            5244%,1#w<4422<d%+&1;-7prrrttffff8gggihfrftyhX      ",
"           o<22<1**w<2<<<2<4**13-rrrrrtttfffhjjjjkklifary8      ",
"           w<<<<1*z<24224<2@**1-rtttrraaffffikljjkkjjlfrryx     ",
"          $<<<<=%,%,<42442@%1@%srrtttafffffffckjjjjjjjlftur.    ",
"          x;>-6@@3w#1<22<@%4<4,rurttffffff8fffiljjjjjjjhtryi    ",
"          1;>;w*<<<,%42<d&4=4syuurtttffff888f8f8hijjkkj8fturX   ",
"         #->;=#1;<<<%+<4*w<2vurrtttaigf88h8fffffff8g+lhffaryb   ",
"        $*=->%w;>-<<5*4@@<=2srrtttfcjjhf888nnihf8ffffffffaayh   ",
"         #+;@@;;6-<<<@*%1<2=urttttglljhfffikkkjhfffffffffatu8   ",
"        Xw*+#=;;;6-<<1#,<=<srutttfllllfffflkjjkl8ffffffffftusX  ",
"        $-@#1;-;;--<<z@*w3-yrtttthlllhtfffljjjjjhffffffhlcfrrX  ",
"        .;w#=;-6-<<;w*=w*wsprrtttflliattffhklljlffff8f8jllfuuq  ",
"        x;%@*=6-;-;=*1<<2%suttttafffttttatfgjljgtaffffgjjctuuq  ",
"        @1*-@z-;>;<%,6<<;6rrttttfffafttttttfiljftaffffilgfrryq  ",
"        %@+;<*+;>6w*<-<-;7prttttaffffffaattttffttttttftfttruyo  ",
"        q%=-;2#w;=&w<<<-;urutttaffffffffttaffttafttafftattrurX  ",
"        Xw;-;;w#<@z<<<6;;urrttffff8fffffff8ffaaffaaffffaarry+   ",
"         +;-6-;@%%4<<--;-rrrtafffffhffffhjlhffffffff8h8afrryo   ",
"         .;--<62#@<<>>>;-rrrtffhllhff8ffijjhf8fffff8jjjftru=    ",
"          +;<<<w**1;<>>>-yurtthjkkjg8f8ffij8888ffffgjjj8rryg    ",
"           1<<<%ww*=;;-<<irrttgjjjjkji88ff8f88fffhfckkgftry&    ",
"           .2<1*4<,*=;-;,xrrttgjjjjjkkh88ffffmhh88fhjlfaayM     ",
"            .=5*=<6+#1N1*strtthjjjjjjjhff88fijjklhff8fsrr8      ",
"             .@@<<<;B&wzwutrttfljjjjkgfff8fnjjjjkj8fffarr.      ",
"              .w<<--;=%*=6ttfaahjkkjg88f8fcjjjjjjj8fffsyk       ",
"              Xo@3<<6;,*%=rtttrs8nnhff88fgkjjjjjjgftfayg        ",
"                 %6-;1*<,@a8mmhfffffff8f8jjjjjljl8ttty+         ",
"                  #=<@,Vnccccccnhfffffffhkjjjjlgfttryb          ",
"                   b9ccccnlbkkcnc8fffffffhgglg8aruth&           ",
"               Xqblncncccnlkbblnnn8fffffatafftryfxX             ",
"             qxcnnncnnccccnnncnmmmmfCttttrtrut8b                ",
"          XZjnnlkblnnncnnnnnnmmmm88hffhmm88kxq                  ",
"       X&kcnnccZZZjnnnnnkkjcmmmAAmnncclcccjq                    ",
"     XZcmnccnnlkkjcnnnmmkkbcfAmmnccccjbkjcnmq                   ",
"   o0v8nccnncccnnnmmmmmmmnnmnnccccccnlkSZlncn&                  ",
"  +DDDF68cclbbjnnnmmA8f8mmnclccccccncnccccccnnq                 ",
" +DeNNFDDN8cjbbmmm8GGAmncclkklcccccccccnncnnnnjX                ",
"$NetHHyJNDKsncc888AmnnccccbZZjncccckkklnccnlklnj                ",
"+DsHHHHHHuFK6fGmmnncccccnlkkkcnccccbZZjnclnjxlcnb               ",
"+DsHHHHHsHHuFKs8vncccnccccnccccccnccjlcccccnnnncn&              ",
"+KHHHHHHHssHHFDKDF6vcclbbkcccccccccnnncccllccnnccnX             ",
"oDyHHHHHHHHHeKFeNFDDN8lkZbcccccccncjjnccccccccnccnb             ",
" 1KHHHHHHHHHFeHHHyeFDDvcjlnccnnnnclZbncccncckZjncnnq            ",
" $4KLyHHHHsJKuHHHHHHJFD7nccccljlccclccccccnlZZbccjnk            ",
"   +NFKeeLHeKHHHHHHHHHJFN8cnlZZZlnccnccnccclbZjncbkn.           ",
"    XxOO+1PNFHHHHHHHHHHHeDvcckZZknccckSkcnncllnnnclnq           ",
"           #DuHHHHHHHHHHHJK7ccjkjncckZZZkncccnnnnncnq           ",
"            4KHHHHHHHHHHHHyD7cnnccccbZbbZlncccnlklc8&           ",
"            XPKLsHsHHHHHHHHLK6nncccnlbZZZjnccnckZkcvq           ",
"              +NFFeLLLHHHHHHHF6ncnccnckkkcccccbZkln7            ",
"               Xx,+BB7NeFeeeeeDFiccccnncncccnckjcceO            ",
"                      $qx+B1111PDsncccccclcccccc8Fw             ",
"                                +NFev8nncccnmVv6Px              ",
"                                  %1KKNFNNN674+q                ",
"                                    $.$qqo.$$                   ",
"                                                                "};
